<svg width="447" height="222" viewBox="0 0 447 222" fill="none" xmlns="http://www.w3.org/2000/svg">
<path d="M117.99 115.27C120.405 118.27 122.403 121.759 123.828 125.657C129.88 142.222 123.295 159.9 109.117 165.521C108.452 165.789 107.772 166.025 107.075 166.234C93.015 170.448 77.237 161.403 71.148 145.67C69.548 141.537 68.745 137.324 68.66 133.232C68.577 129.305 66.802 125.485 63.948 122.878C59.421 118.738 55.705 113.316 53.369 106.924C50.405 98.8116 50.144 90.4606 52.119 83.1046C53.159 79.2326 52.319 74.8966 49.994 71.4226C48.671 69.4456 47.55 67.2566 46.685 64.8876C41.633 51.0626 47.17 36.3026 59.057 31.6896C59.399 31.5566 59.741 31.4356 60.083 31.3226C71.666 27.5306 85.02 34.7106 90.311 47.8246C91.382 50.4796 92.055 53.1816 92.36 55.8466C92.847 60.0666 95.043 63.9696 98.382 66.3126C104.587 70.6626 109.731 77.1846 112.679 85.2516C115.014 91.6436 115.669 98.1836 114.876 104.273C114.374 108.124 115.514 112.192 117.99 115.27Z" fill="#EFC45C"/>
<path d="M60.083 31.3237L109.116 165.521C108.451 165.789 107.771 166.025 107.074 166.234C93.014 170.448 77.236 161.403 71.147 145.67C69.547 141.537 68.744 137.324 68.659 133.232C68.576 129.305 66.801 125.485 63.947 122.878C59.42 118.738 55.704 113.316 53.368 106.924C50.404 98.8117 50.143 90.4607 52.118 83.1047C53.158 79.2327 52.318 74.8967 49.993 71.4227C48.67 69.4457 47.549 67.2567 46.684 64.8877C41.632 51.0627 47.169 36.3027 59.056 31.6897C59.399 31.5567 59.741 31.4357 60.083 31.3237Z" fill="#E7A43B"/>
<path d="M350.904 108.745C347.424 110.394 344.106 112.666 341.127 115.555C328.467 127.833 326.7 146.615 337.017 157.848C337.499 158.378 338.008 158.887 338.545 159.379C349.368 169.294 367.511 168.019 379.841 156.506C383.081 153.482 385.637 150.038 387.496 146.391C389.28 142.892 392.541 140.226 396.245 139.121C402.123 137.364 407.829 134.101 412.714 129.363C418.914 123.35 422.784 115.946 424.208 108.464C424.958 104.526 427.601 100.988 431.206 98.8717C433.258 97.6677 435.22 96.1857 437.03 94.4297C447.596 84.1827 449.037 68.4837 440.344 59.1567C440.094 58.8877 439.839 58.6297 439.58 58.3797C430.803 49.9237 415.655 50.5737 405.183 60.0767C403.063 62.0007 401.281 64.1397 399.846 66.4067C397.571 69.9937 393.895 72.5517 389.869 73.2077C382.389 74.4227 374.919 78.0547 368.753 84.0347C363.868 88.7727 360.431 94.3757 358.495 100.203C357.27 103.886 354.473 107.052 350.904 108.745Z" fill="#4F5D71"/>
<path d="M439.58 58.3789L337.017 157.848C337.499 158.378 338.008 158.887 338.545 159.379C349.368 169.294 367.511 168.019 379.841 156.506C383.081 153.482 385.637 150.038 387.496 146.391C389.28 142.892 392.541 140.226 396.245 139.121C402.123 137.364 407.829 134.101 412.714 129.363C418.914 123.35 422.784 115.946 424.208 108.464C424.958 104.526 427.601 100.988 431.206 98.8719C433.258 97.6679 435.22 96.1859 437.03 94.4299C447.596 84.1829 449.037 68.4839 440.344 59.1569C440.094 58.8869 439.839 58.6289 439.58 58.3789Z" fill="#455062"/>
<path d="M314.844 171.436L365.817 25.6636C365.817 25.6636 396.1 125.98 314.844 171.436Z" fill="#6B9DC7"/>
<path d="M314.844 171.436L365.817 25.6636C365.817 25.6636 279.621 85.2486 314.844 171.436Z" fill="#8ABDDB"/>
<path d="M121.671 180.027L0 84.9277C0 84.9277 104.727 88.4757 121.671 180.027Z" fill="#B84234"/>
<path d="M121.671 180.027L0 84.9277C0 84.9277 28.737 185.697 121.671 180.027Z" fill="#D8543C"/>
<path d="M259.8 199.086H170.33C167.272 199.086 165.51 195.599 167.329 193.137L177.235 179.713C179.31 176.901 180.429 173.503 180.429 170.006V94.8535H249.276V169.859C249.276 173.435 250.447 176.911 252.616 179.76L262.768 193.096C264.641 195.552 262.89 199.086 259.8 199.086Z" fill="white"/>
<path opacity="0.49" d="M249.277 95.5796H180.43V168.766H249.277V95.5796Z" fill="#979797"/>
<path d="M335.217 12.6266V147.312C335.217 154.163 329.659 159.715 322.808 159.715H107.322C100.471 159.715 94.9131 154.162 94.9131 147.312V12.6266C94.9131 5.77563 100.471 0.223633 107.322 0.223633H322.808C329.659 0.222633 335.217 5.77563 335.217 12.6266Z" fill="white"/>
<path d="M321.127 14.5786H109.004V147.488H321.127V14.5786Z" fill="#455062"/>
<path d="M321.127 14.5786V138.828C255.077 111.263 194.353 70.7776 150.036 15.0146C149.919 14.8706 149.807 14.7226 149.69 14.5786H321.127Z" fill="#3C4959"/>
<path d="M335.217 129.114V147.312C335.217 154.163 329.659 159.715 322.808 159.715H107.322C100.471 159.715 94.9131 154.162 94.9131 147.312V129.114H335.217Z" fill="#E4E4E4"/>
<path d="M104.928 192.305C102.044 196.803 97.1341 199.49 91.7921 199.49H41.6371C36.3111 199.49 31.4071 196.814 28.5231 192.334C25.6391 187.854 25.2341 182.287 27.4421 177.435L49.7381 128.43V89.7856H83.6911V129.032L105.957 177.369C108.192 182.221 107.809 187.807 104.928 192.305Z" fill="white"/>
<path d="M91.792 194.013H41.637C34.277 194.013 29.378 186.405 32.426 179.702L54.981 130.131H55.215V89.7856H78.215V130.233L100.985 179.661C104.074 186.365 99.174 194.013 91.792 194.013Z" fill="#E4E4E4"/>
<path d="M91.792 194.013H41.637C34.277 194.013 29.378 186.405 32.426 179.702L54.981 130.131H55.215V116.072H78.215V130.233L100.985 179.661C104.074 186.365 99.174 194.013 91.792 194.013Z" fill="#6B9DC7"/>
<path d="M82.505 94.1666H50.743C47.631 94.1666 45.084 91.6196 45.084 88.5076C45.084 85.3956 47.631 82.8486 50.743 82.8486H82.505C85.617 82.8486 88.164 85.3956 88.164 88.5076C88.163 91.6206 85.617 94.1666 82.505 94.1666Z" fill="white"/>
<path opacity="0.75" d="M91.0672 180.499C88.8762 181.501 86.2632 180.528 85.2612 178.337L72.6712 150.818C71.6692 148.627 72.6412 146.014 74.8322 145.012C77.0232 144.01 79.6362 144.981 80.6382 147.172L93.2282 174.693C94.2312 176.884 93.2582 179.497 91.0672 180.499Z" fill="white"/>
<path d="M161.456 156.323H64.5081V213.133H161.456V156.323Z" fill="#455062"/>
<path d="M161.376 156.323H64.5081V175.215H161.376V156.323Z" fill="#313D4A"/>
<path d="M179.573 150.746H46.3911V164.683H179.573V150.746Z" fill="#3C4959"/>
<path d="M56.5441 150.748H53.7041V194.336H56.5441V150.748Z" fill="#E7A43B"/>
<path d="M49.5151 184.395V205.697H60.8761V184.395C60.8761 181.271 58.3201 178.715 55.1961 178.715C53.6341 178.715 52.2141 179.354 51.1861 180.385C50.1541 181.412 49.5151 182.832 49.5151 184.395Z" fill="#EFC45C"/>
<path d="M57.4683 188.087V205.697H59.1723V188.087C59.1723 187.618 58.7883 187.235 58.3203 187.235C58.0843 187.235 57.8743 187.332 57.7183 187.485C57.5643 187.638 57.4683 187.854 57.4683 188.087Z" fill="#E7A43B"/>
<path d="M54.3433 188.087V205.697H56.0473V188.087C56.0473 187.618 55.6643 187.235 55.1953 187.235C54.9593 187.235 54.7493 187.332 54.5933 187.485C54.4403 187.638 54.3433 187.854 54.3433 188.087Z" fill="#E7A43B"/>
<path d="M51.2192 188.087V205.697H52.9232V188.087C52.9232 187.618 52.5402 187.235 52.0712 187.235C51.8352 187.235 51.6252 187.332 51.4692 187.485C51.3162 187.638 51.2192 187.854 51.2192 188.087Z" fill="#E7A43B"/>
<path opacity="0.06" d="M46.3911 150.746V164.683H64.5081V213.133H112.251V150.746H46.3911Z" fill="white"/>
<path d="M343.52 82.8486H265.271H250.52C248.338 82.8486 246.547 84.4926 246.547 86.4966V196.557C246.547 198.56 248.338 200.205 250.52 200.205H265.271H343.52C345.702 200.205 347.493 198.561 347.493 196.557V162.83V118.728V86.4966C347.492 84.4936 345.701 82.8486 343.52 82.8486Z" fill="#DC932D"/>
<path d="M343.514 87.3247H255.498V196.724H343.514V87.3247Z" fill="white"/>
<path d="M339.235 86.4966V196.557C339.235 198.56 337.591 200.205 335.587 200.205H250.194C248.191 200.205 246.546 198.561 246.546 196.557V86.4966C246.546 84.4936 248.19 82.8486 250.194 82.8486H335.587C337.591 82.8486 339.235 84.4936 339.235 86.4966Z" fill="#EFC45C"/>
<path d="M263.739 82.8486V200.204H250.195C248.192 200.204 246.547 198.56 246.547 196.556V86.4966C246.547 84.4936 248.191 82.8486 250.195 82.8486H263.739Z" fill="#E7A43B"/>
<path d="M329.591 118.729H273.897V162.831H329.591V118.729Z" fill="#F4DAA0"/>
<path d="M404.646 178.317H330.962C325.057 178.317 320.271 173.53 320.271 167.626V161.418C320.271 155.513 325.058 150.727 330.962 150.727H404.646C412.265 150.727 418.441 156.903 418.441 164.522C418.441 172.14 412.265 178.317 404.646 178.317Z" fill="#6B9DC7"/>
<path d="M374.81 164.522C374.81 168.333 373.264 171.779 370.768 174.275C368.272 176.771 364.827 178.317 361.015 178.317H299.097V174.705C299.52 174.763 299.944 174.788 300.38 174.788H359.41C362.233 174.788 364.8 173.633 366.661 171.772C368.522 169.911 369.677 167.345 369.677 164.521C369.677 158.875 365.057 154.255 359.411 154.255H300.381C299.945 154.255 299.521 154.281 299.098 154.338V150.726H361.016C368.631 150.726 374.81 156.905 374.81 164.522Z" fill="#8ABDDB"/>
<path d="M369.677 164.522C369.677 167.345 368.522 169.912 366.661 171.773C364.8 173.634 362.234 174.789 359.41 174.789H303.589V154.257H359.411C365.057 154.255 369.677 158.875 369.677 164.522Z" fill="white"/>
<path d="M355.561 160.672C355.561 161.025 355.42 161.346 355.182 161.577C354.951 161.814 354.63 161.956 354.277 161.956H303.589V159.39H354.278C354.983 159.389 355.561 159.966 355.561 160.672Z" fill="#E4E4E4"/>
<path d="M355.561 167.73C355.561 168.083 355.42 168.404 355.182 168.635C354.951 168.873 354.63 169.014 354.277 169.014H303.589V166.448H354.278C354.983 166.446 355.561 167.024 355.561 167.73Z" fill="#E4E4E4"/>
<path d="M418.439 191.898C418.498 195.794 416.941 199.322 414.398 201.865C411.902 204.361 408.456 205.907 404.645 205.907H334.065C333.757 205.907 333.449 205.894 333.147 205.875C325.961 205.407 320.269 199.42 320.269 192.112C320.269 188.301 321.815 184.855 324.311 182.359C326.39 180.28 329.13 178.856 332.19 178.445C332.806 178.362 333.428 178.317 334.064 178.317H404.309C411.903 178.317 418.324 184.307 418.439 191.898Z" fill="#DC932D"/>
<path d="M374.81 192.112C374.81 195.923 373.264 199.369 370.768 201.865C368.272 204.361 364.827 205.907 361.015 205.907H299.097V202.295C299.52 202.353 299.944 202.378 300.38 202.378H359.41C362.233 202.378 364.8 201.223 366.661 199.362C368.522 197.501 369.677 194.935 369.677 192.112C369.677 186.466 365.057 181.846 359.411 181.846H300.381C299.945 181.846 299.521 181.872 299.098 181.929V178.317H361.016C368.631 178.317 374.81 184.496 374.81 192.112Z" fill="#E7A43B"/>
<path d="M369.677 192.112C369.677 194.935 368.522 197.502 366.661 199.362C364.8 201.223 362.234 202.378 359.41 202.378H303.589V181.846H359.411C365.057 181.846 369.677 186.465 369.677 192.112Z" fill="white"/>
<path d="M355.561 188.583C355.561 188.936 355.42 189.257 355.182 189.488C354.951 189.725 354.63 189.867 354.277 189.867H303.589V187.301H354.278C354.983 187.3 355.561 187.877 355.561 188.583Z" fill="#E4E4E4"/>
<path d="M355.561 195.641C355.561 195.994 355.42 196.315 355.182 196.546C354.951 196.783 354.63 196.925 354.277 196.925H303.589V194.359H354.278C354.983 194.358 355.561 194.935 355.561 195.641Z" fill="#E4E4E4"/>
<path d="M404.646 150.726H330.962C325.057 150.726 320.271 145.939 320.271 140.035V133.827C320.271 127.922 325.058 123.136 330.962 123.136H404.646C412.265 123.136 418.441 129.312 418.441 136.931C418.441 144.55 412.265 150.726 404.646 150.726Z" fill="#B84234"/>
<path d="M374.81 136.931C374.81 140.742 373.264 144.188 370.768 146.684C368.272 149.18 364.827 150.726 361.015 150.726H299.097V147.114C299.52 147.172 299.944 147.197 300.38 147.197H359.41C362.233 147.197 364.8 146.042 366.661 144.181C368.522 142.32 369.677 139.754 369.677 136.93C369.677 131.284 365.057 126.664 359.411 126.664H300.381C299.945 126.664 299.521 126.69 299.098 126.747V123.135H361.016C368.631 123.136 374.81 129.315 374.81 136.931Z" fill="#D8543C"/>
<path d="M369.677 136.931C369.677 139.754 368.522 142.321 366.661 144.182C364.8 146.043 362.234 147.198 359.41 147.198H303.589V126.666H359.411C365.057 126.665 369.677 131.285 369.677 136.931Z" fill="white"/>
<path d="M355.561 133.082C355.561 133.435 355.42 133.756 355.182 133.987C354.951 134.224 354.63 134.366 354.277 134.366H303.589V131.8H354.278C354.983 131.798 355.561 132.376 355.561 133.082Z" fill="#E4E4E4"/>
<path d="M355.561 140.139C355.561 140.492 355.42 140.813 355.182 141.044C354.951 141.282 354.63 141.423 354.277 141.423H303.589V138.857H354.278C354.983 138.856 355.561 139.434 355.561 140.139Z" fill="#E4E4E4"/>
<path d="M321.137 144.013L315.502 141.03L310.197 144.013V129.095H321.137V144.013Z" fill="#6B9DC7"/>
<path d="M296.43 197.857C296.43 201.581 294.908 204.967 292.453 207.417C290.003 209.871 286.617 211.394 282.893 211.394H167.503C160.056 211.394 153.967 205.305 153.967 197.858C153.967 194.134 155.489 190.748 157.944 188.298C160.394 185.844 163.78 184.321 167.504 184.321H282.894C290.341 184.321 296.43 190.41 296.43 197.857Z" fill="#F1F1F1"/>
<path d="M182.372 197.857C182.372 201.581 180.85 204.967 178.395 207.417C176.575 209.237 174.245 210.546 171.64 211.101C171.312 211.168 170.983 211.23 170.646 211.27C170.562 211.283 170.482 211.292 170.397 211.301C169.882 211.363 169.363 211.394 168.835 211.394H167.504C160.057 211.394 153.968 205.305 153.968 197.858C153.968 194.134 155.49 190.748 157.945 188.298C160.395 185.844 163.781 184.321 167.505 184.321H168.836C172.568 184.321 175.959 185.852 178.418 188.315C179.31 189.212 180.082 190.237 180.699 191.355C181.023 191.941 181.307 192.558 181.542 193.197C181.977 194.373 182.252 195.625 182.336 196.929C182.363 197.236 182.372 197.547 182.372 197.857Z" fill="#CACACA"/>
<path d="M220.446 184.53C223.283 188.419 229.354 199.153 220.495 210.716C220.005 211.356 220.458 212.28 221.264 212.28H232.864C233.209 212.28 233.527 212.1 233.701 211.803C235.278 209.118 242.408 195.579 233.704 183.393C233.522 183.138 233.224 182.989 232.911 182.989H221.236C220.444 182.99 219.979 183.89 220.446 184.53Z" fill="#D8543C"/>
<path d="M252.358 186.215C251.801 190.139 250.308 193.927 248.036 197.173C246.853 198.868 245.252 200.527 243.192 200.723C243.016 200.739 242.843 200.746 242.67 200.739C241.047 200.7 239.521 199.768 238.208 198.764C235.991 197.076 230.131 191.903 228.811 187.776C228.482 186.753 228.433 185.791 228.791 184.963C230.646 180.677 244.935 181.387 248.801 181.407C249.606 181.41 250.457 181.44 251.141 181.863C252.498 182.705 252.58 184.631 252.358 186.215Z" fill="#D8543C"/>
<path d="M243.003 199.543C242.99 199.96 242.892 200.397 242.671 200.739C241.048 200.7 239.522 199.768 238.209 198.764C235.992 197.076 230.132 191.903 228.812 187.776C228.91 187.101 229.337 186.576 230.253 186.319C231.127 186.075 232.013 186.589 232.756 187.108C235.96 189.347 238.812 192.092 241.172 195.208C242.136 196.486 243.059 197.943 243.003 199.543Z" fill="#B84234"/>
<path d="M210.242 170.962C208.134 174.339 206.834 178.215 206.483 182.178C206.297 184.245 206.455 186.555 207.912 188.036C208.037 188.162 208.165 188.279 208.302 188.386C209.575 189.405 211.35 189.674 213.008 189.751C215.803 189.885 223.65 189.696 227.331 187.378C228.245 186.804 228.904 186.096 229.164 185.228C230.508 180.735 219.066 172.047 216.081 169.564C215.46 169.046 214.787 168.519 213.987 168.403C212.403 168.173 211.095 169.601 210.242 170.962Z" fill="#D8543C"/>
<path d="M208.82 187.251C208.561 187.58 208.353 187.979 208.303 188.385C209.576 189.404 211.351 189.673 213.009 189.75C215.804 189.884 223.651 189.695 227.332 187.377C227.693 186.795 227.704 186.116 227.166 185.326C226.652 184.574 225.638 184.396 224.732 184.315C220.822 183.966 216.857 184.232 213.029 185.103C211.462 185.462 209.811 185.985 208.82 187.251Z" fill="#B84234"/>
<path d="M237.706 185.281C237.079 189.772 233.681 191.167 228.692 190.47C223.702 189.773 220.816 187.501 221.443 183.01C222.07 178.519 225.594 176.221 230.584 176.917C235.573 177.614 238.333 180.79 237.706 185.281Z" fill="#AC3329"/>
<path d="M98.3181 180.989C97.2641 181.973 96.1171 183.209 96.3391 184.634C96.3861 184.934 96.5031 185.235 96.7291 185.438C97.2131 185.87 97.9631 185.705 98.5831 185.513C101.365 184.653 104.142 183.775 106.914 182.881C107.132 182.811 107.365 182.729 107.496 182.541C107.631 182.347 107.622 182.09 107.607 181.854C107.516 180.413 107.425 178.972 107.333 177.531C106.033 177.099 104.642 176.945 103.279 177.082C101.347 177.278 99.6731 179.723 98.3181 180.989Z" fill="white"/>
<path d="M116.965 146.628L108.913 139.978L99.1921 153.219L98.9461 153.554C98.3801 154.326 98.1211 155.281 98.2201 156.233L100.555 178.554L107.421 178.096L106.871 159.074C106.843 158.109 107.195 157.172 107.851 156.463L116.965 146.628Z" fill="#D8543C"/>
<path d="M137.833 180.989C138.887 181.973 140.034 183.209 139.812 184.634C139.765 184.934 139.648 185.235 139.422 185.438C138.938 185.87 138.188 185.705 137.568 185.513C134.786 184.653 132.009 183.775 129.237 182.881C129.019 182.811 128.786 182.729 128.655 182.541C128.52 182.347 128.529 182.09 128.544 181.854C128.635 180.413 128.726 178.972 128.818 177.531C130.118 177.099 131.509 176.945 132.872 177.082C134.804 177.278 136.477 179.723 137.833 180.989Z" fill="white"/>
<path d="M119.186 146.628L127.238 139.978L136.959 153.219L137.205 153.554C137.771 154.326 138.03 155.281 137.931 156.233L135.596 178.554L128.73 178.096L129.28 159.074C129.308 158.109 128.956 157.172 128.3 156.463L119.186 146.628Z" fill="#D8543C"/>
<path d="M121.624 151.062C123.204 151.544 124.74 152.332 126.392 152.322C126.1 150.345 125.717 148.381 125.242 146.44C125.07 145.734 124.863 144.992 124.337 144.49C124.027 144.195 123.631 144.008 123.237 143.841C121.871 143.26 120.435 142.845 118.969 142.608C117.614 142.389 116.178 142.331 114.915 142.867C113.794 143.343 112.905 144.251 112.219 145.257C111.136 146.845 108.637 152.489 112.003 151.84C115.472 151.172 117.96 149.944 121.624 151.062Z" fill="#D8543C"/>
<path d="M133.838 112.411C132.965 109.988 131.307 107.802 130.75 105.307C130.375 103.629 130.518 101.894 130.267 100.198C129.537 95.2744 125.343 91.1195 120.5 90.1285C114.688 88.9395 108.462 92.3304 106.547 97.9804C106.303 98.7004 106.133 99.4455 106.034 100.197C105.809 101.893 105.937 103.629 105.601 105.306C105.102 107.802 103.619 109.988 102.837 112.41C102.055 114.833 102.211 117.926 104.311 119.374C104.84 119.738 105.467 119.979 105.894 120.457C106.483 121.116 106.562 122.069 106.874 122.895C107.518 124.6 109.242 125.77 111.052 126.022C112.862 126.274 114.72 125.7 116.257 124.714C116.694 124.433 117.116 124.112 117.481 123.742C117.888 124.112 118.359 124.433 118.848 124.714C120.565 125.7 122.64 126.274 124.662 126.022C126.684 125.77 128.609 124.601 129.329 122.895C129.678 122.069 129.766 121.116 130.424 120.457C130.901 119.979 131.602 119.738 132.193 119.374C134.536 117.927 134.711 114.833 133.838 112.411Z" fill="#263039"/>
<path d="M118.103 146.293C111.749 146.293 106.55 141.094 106.55 134.74V127.631C106.55 121.277 111.749 116.078 118.103 116.078C124.457 116.078 129.656 121.277 129.656 127.631V134.74C129.656 141.094 124.457 146.293 118.103 146.293Z" fill="#EFC45C"/>
<path d="M117.412 126.939C117.412 126.939 123.194 121.41 132.026 120.521V126.445L117.412 126.939Z" fill="white"/>
<path d="M104.477 126.742V120.521C104.477 120.521 117.215 122.693 118.103 126.939L104.477 126.742Z" fill="white"/>
<path d="M135.876 124.245V145.674C135.876 146.24 135.467 146.72 134.907 146.811L120.176 149.193L118.102 149.528L118.028 149.54L117.954 149.528V125.788L118.028 125.776L120.176 125.429L134.54 123.107C135.242 122.995 135.876 123.534 135.876 124.245Z" fill="#8ABDDB"/>
<path d="M118.103 125.788V149.528L118.029 149.54L117.955 149.528L116.029 149.217L101.15 146.812C100.59 146.72 100.181 146.24 100.181 145.675V124.246C100.181 123.535 100.815 122.996 101.517 123.108L116.029 125.454L118.029 125.777L118.103 125.788Z" fill="#6B9DC7"/>
<path d="M120.177 125.43V149.193L118.103 149.527L118.029 149.539L117.955 149.527V125.788L118.029 125.776L120.177 125.43Z" fill="#4F5D71"/>
<path d="M118.029 125.776L117.955 125.788V149.527L116.029 149.217V125.453L118.029 125.776Z" fill="#455062"/>
<path d="M133.21 140.071L123.731 141.552V132.962L133.21 131.48V140.071Z" fill="white"/>
<path d="M103.292 135.183C103.292 134.789 103.101 134.428 102.784 134.146C103.101 133.864 103.292 133.503 103.292 133.109C103.292 132.209 102.297 131.48 101.07 131.48C100.869 131.48 100.189 131.48 100.033 131.48C98.5612 131.48 97.3672 133.138 97.3672 135.183C97.3672 137.228 98.5612 138.886 100.033 138.886C100.189 138.886 100.869 138.886 101.07 138.886C102.297 138.886 103.292 138.157 103.292 137.257C103.292 136.863 103.101 136.502 102.784 136.22C103.101 135.938 103.292 135.577 103.292 135.183Z" fill="#E8A387"/>
<path d="M133.507 134.888C133.507 134.494 133.698 134.133 134.015 133.851C133.698 133.569 133.507 133.208 133.507 132.814C133.507 131.914 134.502 131.185 135.729 131.185C135.93 131.185 136.61 131.185 136.766 131.185C138.238 131.185 139.432 132.843 139.432 134.888C139.432 136.933 138.238 138.591 136.766 138.591C136.61 138.591 135.93 138.591 135.729 138.591C134.502 138.591 133.507 137.862 133.507 136.962C133.507 136.568 133.698 136.207 134.015 135.925C133.697 135.643 133.507 135.282 133.507 134.888Z" fill="#E8A387"/>
<path d="M118.066 120.737C116.43 120.737 115.104 119.411 115.104 117.775V110.666H121.028V117.775C121.028 119.411 119.702 120.737 118.066 120.737Z" fill="#E8A387"/>
<path d="M118.109 116.963C112.892 116.963 108.625 112.754 108.625 107.609V101.373C108.625 96.2275 112.893 94.4165 118.109 94.4165C123.325 94.4165 127.593 96.2275 127.593 101.373V107.609C127.593 112.754 123.325 116.963 118.109 116.963Z" fill="#E8A387"/>
<path d="M108.138 109.869C106.934 109.869 105.949 108.884 105.949 107.68V106.231C105.949 105.027 106.934 104.042 108.138 104.042C108.944 104.042 109.597 104.695 109.597 105.501V108.409C109.597 109.216 108.944 109.869 108.138 109.869Z" fill="#E8A387"/>
<path d="M128.08 109.869C129.284 109.869 130.269 108.884 130.269 107.68V106.231C130.269 105.027 129.284 104.042 128.08 104.042C127.274 104.042 126.621 104.695 126.621 105.501V108.409C126.621 109.216 127.274 109.869 128.08 109.869Z" fill="#E8A387"/>
<path d="M114.657 105.184C114.657 105.954 114.147 106.577 113.517 106.577C112.887 106.577 112.377 105.953 112.377 105.184C112.377 104.415 112.887 103.791 113.517 103.791C114.147 103.791 114.657 104.414 114.657 105.184Z" fill="#263039"/>
<path d="M124.03 105.184C124.03 105.954 123.52 106.577 122.89 106.577C122.26 106.577 121.75 105.953 121.75 105.184C121.75 104.415 122.26 103.791 122.89 103.791C123.52 103.791 124.03 104.414 124.03 105.184Z" fill="#263039"/>
<path d="M121.37 108.535C121.37 109.895 119.952 110.998 118.204 110.998C116.455 110.998 115.037 109.895 115.037 108.535C115.037 107.175 121.37 107.174 121.37 108.535Z" fill="white"/>
<path d="M111.617 110.377C112.527 110.377 113.264 109.639 113.264 108.73C113.264 107.82 112.527 107.083 111.617 107.083C110.708 107.083 109.97 107.82 109.97 108.73C109.97 109.639 110.708 110.377 111.617 110.377Z" fill="#E28065"/>
<path d="M124.79 110.377C125.7 110.377 126.437 109.639 126.437 108.73C126.437 107.82 125.7 107.083 124.79 107.083C123.881 107.083 123.143 107.82 123.143 108.73C123.143 109.639 123.881 110.377 124.79 110.377Z" fill="#E28065"/>
<path d="M112.339 101.012C114.002 99.7254 115.415 98.1884 116.795 96.6434C117.169 97.1964 117.643 97.6844 118.128 98.1584C119.551 99.5514 121.093 100.858 122.857 101.866C124.621 102.875 126.621 103.579 128.696 103.697C128.959 103.712 128.755 100.64 128.71 100.363C128.543 99.3404 128.192 98.3654 127.789 97.4074C127.019 95.5754 125.6 93.9784 123.791 92.9384C120.886 91.2684 117.332 91.2024 114.213 92.4304C110.827 93.7644 108.686 96.2294 107.271 99.2854C106.867 100.158 105.408 103.128 107.107 103.597C107.765 103.779 109.237 102.916 109.799 102.632C110.703 102.175 111.549 101.623 112.339 101.012Z" fill="#263039"/>
<path d="M270.506 154.316H252.702C250.834 148.957 248.15 141.16 247.902 140.165C247.797 139.449 247.208 138.901 246.497 138.901C245.712 138.901 245.075 139.569 245.075 140.393C245.075 140.714 245.075 141.155 250.374 156.322C250.579 156.91 251.112 157.3 251.709 157.3H270.506C271.291 157.3 271.927 156.632 271.927 155.808C271.928 154.984 271.291 154.316 270.506 154.316Z" fill="white"/>
<path d="M270.11 215.258C268.81 216.144 267.368 217.284 267.371 218.858C267.372 219.189 267.447 219.533 267.658 219.789C268.107 220.335 268.944 220.282 269.644 220.178C272.786 219.714 275.926 219.23 279.062 218.726C279.308 218.686 279.574 218.637 279.746 218.457C279.924 218.27 279.956 217.992 279.98 217.735C280.121 216.167 280.263 214.598 280.404 213.03C279.075 212.348 277.601 211.95 276.109 211.872C273.992 211.762 271.781 214.119 270.11 215.258Z" fill="white"/>
<path d="M285.898 216.018C284.792 217.137 283.595 218.533 283.9 220.076C283.964 220.401 284.104 220.724 284.36 220.935C284.906 221.385 285.717 221.172 286.384 220.936C289.379 219.878 292.367 218.801 295.349 217.706C295.583 217.62 295.834 217.521 295.969 217.311C296.108 217.094 296.086 216.814 296.06 216.558C295.898 214.992 295.736 213.425 295.574 211.859C294.139 211.444 292.616 211.337 291.136 211.546C289.038 211.843 287.321 214.58 285.898 216.018Z" fill="white"/>
<path d="M292.787 187.677L293.229 178.023L293.449 171.042L283.805 171.211H274.627C274.621 171.191 274.622 171.172 274.624 171.152L274.619 171.197L274.604 171.348L274.541 171.964L274.389 173.289L274.062 175.986L273.376 181.413L271.96 192.284L271.907 192.689L271.91 192.949L272.175 213.488L280.628 213.986L280.888 193.343L282.635 182.76L282.892 181.165H283.697L283.617 187.719L283.611 188.177L283.658 188.486L287.132 214.565L296.003 213.404L292.787 187.677Z" fill="#253038"/>
<path d="M274.623 171.137C274.622 171.142 274.624 171.148 274.624 171.153L274.627 171.121C274.627 171.121 274.624 171.132 274.623 171.137Z" fill="#253038"/>
<path d="M292.267 172.715H275.456C274.331 172.715 273.916 171.803 273.916 170.678V159.137C273.916 148.847 278.721 140.89 285.201 140.89H287.594C291.284 140.89 294.304 143.909 294.304 147.6V170.678C294.305 171.803 293.393 172.715 292.267 172.715Z" fill="#6B9DC7"/>
<path d="M261.982 160.284C262.006 160.362 259.218 160.684 259.061 160.693C256.68 160.831 252.761 160.953 251.648 158.54C251.292 157.768 251.85 156.896 252.744 156.764C253.562 156.643 254.815 156.602 256.716 156.802C256.569 156.787 256.319 156.132 256.281 156.026C255.976 155.169 256.695 154.41 257.62 154.508C258.947 154.649 260.112 155.937 260.91 156.802L261.982 160.284Z" fill="#E8A387"/>
<path d="M280.63 162.77L260.242 161.775V155.311H279.607C280.571 155.311 281.48 154.889 282.11 154.16C283.296 152.785 284.749 150.345 285.932 147.705C286.632 146.141 288.399 145.359 290.019 145.92L290.838 146.203C292.662 146.834 293.549 148.888 292.767 150.652C292.268 151.777 291.643 153.082 290.911 154.393C287.811 159.951 284.352 162.77 280.63 162.77Z" fill="#8ABDDB"/>
<path d="M293.7 117.374C298.275 120.612 299.92 127.264 297.899 132.343C296.631 135.53 293.685 138.198 290.167 138.774C289.287 138.918 288.322 138.919 287.581 138.453C286.599 137.836 286.3 136.61 286.135 135.496C285.59 131.827 285.639 128.099 285.947 124.405C286.104 122.53 286.328 120.661 286.576 118.794C286.685 117.972 286.627 116.809 286.955 116.045C287.291 115.262 287.715 115.403 288.651 115.5C290.598 115.702 292.288 116.376 293.7 117.374Z" fill="#263039"/>
<path d="M275.379 126.003V132.211C275.379 133.255 275.556 134.262 275.883 135.203C277.152 138.871 280.689 141.527 284.823 141.527C289.291 141.527 293.059 138.427 294.028 134.297C294.184 133.626 294.268 132.927 294.268 132.211V126.003C294.268 120.879 290.017 119.076 284.823 119.076C282.225 119.076 279.864 119.528 278.153 120.617C276.441 121.709 275.379 123.44 275.379 126.003Z" fill="#E8A387"/>
<path d="M294.375 134.391C295.563 134.548 296.664 133.705 296.822 132.516L297.011 131.086C297.168 129.898 296.325 128.797 295.136 128.639C294.34 128.534 293.61 129.093 293.505 129.889L293.125 132.76C293.02 133.555 293.579 134.286 294.375 134.391Z" fill="#E8A387"/>
<path d="M286.589 129.04C286.589 129.806 287.097 130.428 287.724 130.428C288.351 130.428 288.859 129.807 288.859 129.04C288.859 128.274 288.351 127.653 287.724 127.653C287.097 127.653 286.589 128.274 286.589 129.04Z" fill="#263039"/>
<path d="M277.255 129.04C277.255 129.806 277.763 130.428 278.39 130.428C279.017 130.428 279.525 129.807 279.525 129.04C279.525 128.274 279.017 127.653 278.39 127.653C277.764 127.653 277.255 128.274 277.255 129.04Z" fill="#263039"/>
<path d="M279.904 132.377C279.904 133.731 281.316 134.829 283.057 134.829C284.798 134.829 286.21 133.731 286.21 132.377C286.21 131.023 279.904 131.023 279.904 132.377Z" fill="white"/>
<path d="M288.355 133.329C288.355 134.374 289.202 135.221 290.247 135.221C291.292 135.221 292.139 134.374 292.139 133.329C292.139 132.284 291.292 131.437 290.247 131.437C289.202 131.437 288.355 132.284 288.355 133.329Z" fill="#E28065"/>
<path d="M275.379 131.588V132.211C275.379 133.255 275.556 134.262 275.883 135.203C275.961 135.216 276.039 135.221 276.12 135.221C277.164 135.221 278.012 134.373 278.012 133.329C278.012 132.285 277.164 131.437 276.12 131.437C275.858 131.437 275.606 131.49 275.379 131.588Z" fill="#E28065"/>
<path d="M289.335 124.34C287.841 124.603 286.335 124.867 284.824 124.791C283.313 124.715 281.777 124.274 280.582 123.256C279.277 124.549 277.615 125.403 275.874 125.674C275.304 125.763 274.67 125.773 274.215 125.386C273.598 124.861 273.575 123.851 273.717 123.008C274.564 117.985 278.989 114.825 283.431 114.554C288.023 114.274 292.852 117.079 295.103 121.501C296.103 123.466 296.545 125.721 296.352 127.963C296.23 129.378 295.471 129.27 294.318 129.003C292.097 128.488 290.099 126.708 289.335 124.34Z" fill="#263039"/>
<path d="M284.912 145.366C283.234 145.366 281.873 144.005 281.873 142.327V138.459C281.873 136.781 283.234 135.42 284.912 135.42C286.59 135.42 287.951 136.781 287.951 138.459V142.327C287.951 144.005 286.59 145.366 284.912 145.366Z" fill="#E8A387"/>
</svg>
